<?xml version="1.0" encoding="UTF-8"?>
<!DOCTYPE svg PUBLIC "-//W3C//DTD SVG 1.1//EN" "http://www.w3.org/Graphics/SVG/1.1/DTD/svg11.dtd">
<svg version="1.1" xmlns="http://www.w3.org/2000/svg" xmlns:xlink="http://www.w3.org/1999/xlink" x="0" y="0" width="20" height="20" viewBox="0, 0, 20, 20">
  <g id="Ebene_1" transform="translate(-2, -2)">
    <path d="M12,20 C7.59,20 4,16.41 4,12 C4,7.59 7.59,4 12,4 C16.41,4 20,7.59 20,12 C20,16.41 16.41,20 12,20 M12,2 C6.477,2 2,6.477 2,12 C2,17.523 6.477,22 12,22 C17.523,22 22,17.523 22,12 C22,6.477 17.523,2 12,2 M13,7 L11,7 L11,11 L7,11 L7,13 L11,13 L11,17 L13,17 L13,13 L17,13 L17,11 L13,11 L13,7 z" fill="#FFFFFF"/>
  </g>
</svg>
